
<svg version="1.0" xmlns="http://www.w3.org/2000/svg"
 width="225.000000pt" height="225.000000pt" viewBox="0 0 225.000000 225.000000"
 preserveAspectRatio="xMidYMid meet">

<g transform="translate(0.000000,225.000000) scale(0.100000,-0.100000)"
fill="#000000" stroke="none">
<path d="M976 2004 c-358 -68 -634 -339 -713 -699 -25 -112 -20 -289 10 -406
42 -159 126 -307 241 -418 l55 -55 103 18 c130 23 217 49 292 89 97 52 143
148 116 247 -15 56 -101 142 -225 227 -184 125 -231 186 -223 291 8 107 66
184 232 310 133 100 184 148 207 194 30 58 28 59 -61 52 l-80 -7 0 30 c0 35
13 43 70 43 20 0 51 3 68 6 l31 6 -19 38 c-11 21 -23 41 -27 43 -5 2 -39 -2
-77 -9z"/>
<path d="M1147 1975 l38 -46 76 7 c76 6 76 6 81 -20 7 -33 3 -36 -47 -36 -24
0 -56 -3 -73 -6 -26 -5 -31 -11 -36 -48 -6 -41 -24 -79 -124 -269 -59 -110
-66 -159 -32 -214 30 -49 100 -79 269 -113 84 -17 189 -44 233 -60 153 -56
311 -176 409 -310 l44 -60 12 36 c41 117 55 313 32 440 -49 280 -232 525 -484
651 -117 58 -255 93 -372 93 l-64 0 38 -45z"/>
</g>
</svg>
